<?xml version="1.0" encoding="utf-8"?>
<!-- Generator: Adobe Illustrator 25.2.1, SVG Export Plug-In . SVG Version: 6.00 Build 0)  -->
<svg version="1.1" id="katman_1" xmlns="http://www.w3.org/2000/svg" xmlns:xlink="http://www.w3.org/1999/xlink" x="0px" y="0px"
	 viewBox="0 0 399 207.5" style="enable-background:new 0 0 399 207.5;" xml:space="preserve">
<style type="text/css">
	.st0{fill:#40403F;}
	.st1{fill:#FEFEFE;}
	.st2{fill:#7D7D7D;}
	.st3{fill:none;stroke:#2B2A29;stroke-width:0.5669;stroke-miterlimit:22.9256;}
	.st4{fill:#5B5B5B;}
</style>
<g>
	<path class="st0" d="M241.1,68.7V87V100v8.6c0,4.9,1.4,8.2,4,9.7c2.8,1.7,6.8,2.6,12.3,2.6v4.3h-60.7V121c4.9-0.2,8.5-0.7,10.6-1.9
		c3.5-1.7,5.2-5.2,5.2-10.4V100V84.1V68.8V53V24.7c0-5-1.6-8.5-4.9-10.2c-2.1-1-5.7-1.7-10.9-1.9V8h60.7v4.5
		c-5.6,0.2-9.2,0.7-11.3,1.7c-3.3,1.7-5,5.2-5,10.4V53V68.7z M304.8,83.5l-0.5,28.1c-0.3,2-1,4.2-2.5,5.7c-1.9,1.9-5.7,3.1-11.4,3.6
		v4.3h57.8V121c-5.9-0.3-9.9-1.4-12-3.3c-2.3-2.1-3.3-6.2-3.3-12.7V74v-1.3c10.4,0,18.2-0.4,23.4-0.7c5.2-0.5,10.6-1.7,15.8-4
		c6.9-3,12-6.9,14.9-12c3-5,4.5-10.4,4.5-16.1c0-11.6-3.8-19.9-11.6-24.6C372.3,10.5,361,8,346.3,8h-55.9v4.5
		c5.7,0.5,9.5,1.7,11.4,3.5c1.9,1.7,2.9,5.9,2.9,12.3V74V83.5z M361.9,40.5c0-7.8-1.4-14.2-4-19.1c-2.8-4.9-7.8-7.3-15.3-7.3
		c-3.5,0-5.9,0.3-7.5,1.2c-1.4,0.9-2.3,2.4-2.3,4.9V62l-17.7,5.1l19-0.5c9.7-0.3,16.2-1.4,19.4-3.4
		C359.1,59.6,361.9,52.1,361.9,40.5z M51.5,8L83.4,83l-2.5,21.1l6.2-15.7l34-80.3h43.7v4.5c-5.9,0.3-9.9,1.4-12,3.1
		c-2.3,1.7-3.3,6.1-3.3,12.7v35.3h0v42.3c0.1,5.9,1.1,9.7,3.3,11.7c2.1,1.9,6.1,3,12,3.3v4.3h-57.6V121c5-0.2,9-1,11.6-2.6
		c2.6-1.6,3.8-5,3.8-10.2V106v-1.5v-9.6V63.6V23.3h-1.2l-42.5,102h-4.7l-43-99.9h-0.7v78.4c0,5.9,1,10.1,3.3,12.7
		c2.1,2.8,6.8,4.2,14.2,4.5v4.3H7.4V121c6.6-0.2,10.8-1.2,12.8-3.6c1.9-2.3,3-5.7,3-10.2V24.7c0-4.7-1.2-7.8-3.5-9.4
		c-2.3-1.4-6.2-2.4-12-2.8V8H51.5z"/>
	<path class="st1" d="M361.9,40.5c0-7.8-1.4-14.2-4-19.1c-2.8-4.9-7.8-7.3-15.3-7.3c-3.5,0-5.9,0.3-7.5,1.2
		c-1.4,0.9-2.3,2.4-2.3,4.9V62l-17.7,5.1l19-0.5c9.7-0.3,16.2-1.4,19.4-3.4C359.1,59.6,361.9,52.1,361.9,40.5"/>
	<path class="st2" d="M322.2,95.1c2.1,2.2,2.8,4.5,2.8,7.3c0.1,6.3-5.1,10.1-11.2,9.7c-2.6-0.2-5.1-0.7-7-2
		c-0.1,0.1-38.4-26.5-89.1-28.5c-24.7-1-38.6,0.3-62.3,6c-22.6,5.5-54.2,26.7-54.2,26.7s8.5-7.7,14.9-12.2c6.6-4.6,10.6-7,18.1-10.8
		c9.9-4.9,16.1-7.2,27.2-10.6c17-5.3,27.5-7.1,45.8-9c55-5.7,98.6,14.1,111.4,20.8C319.8,93.3,321,93.9,322.2,95.1"/>
	<g>
		<path class="st0" d="M20.8,161.6l-7.1-16.1l-1.5,15.4h-1.9l2.7-21l7.7,17.9l8-17.9l2.6,21h-1.9l-1.5-15.4L20.8,161.6z"/>
		<path class="st0" d="M35.1,160.8v-20.1h10v1.7h-8.1v6.3h8.1v1.7h-8.1v8.7h8.1v1.7H35.1z"/>
		<path class="st0" d="M61.8,160.8h-2.2l-7.1-9.6h-1.1v9.6h-1.8v-20.1h3.7c2.2,0,3.8,0.5,4.9,1.4c1.1,0.9,1.6,2.3,1.6,4.1
			c0,1.6-0.5,2.8-1.4,3.7c-0.9,0.9-2.2,1.3-3.8,1.3L61.8,160.8z M51.4,142.3v7.4h1.8c1.7,0,2.9-0.3,3.6-0.8s1-1.5,1-2.8
			c0-1.4-0.3-2.4-1-3c-0.7-0.6-1.9-0.9-3.5-0.9H51.4z"/>
		<path class="st0" d="M62.9,157.4l1.6-0.8c0.3,1,0.8,1.8,1.5,2.3s1.6,0.8,2.6,0.8c1.3,0,2.3-0.4,3-1.1c0.7-0.8,1.1-1.8,1.1-3.1
			c0-1-0.2-1.8-0.7-2.4c-0.5-0.6-1.5-1.4-3.1-2.2c-2-1.1-3.4-2-4-2.8c-0.7-0.8-1-1.8-1-2.9c0-1.4,0.5-2.6,1.4-3.5
			c1-0.9,2.2-1.3,3.8-1.3c1,0,1.9,0.2,2.6,0.6c0.7,0.4,1.4,1.1,1.8,1.9l-1.4,0.9c-0.3-0.6-0.7-1-1.2-1.3c-0.5-0.3-1.2-0.5-1.9-0.5
			c-1,0-1.8,0.3-2.4,0.9c-0.6,0.6-0.9,1.4-0.9,2.4c0,1.4,1.2,2.7,3.5,3.9c0.4,0.2,0.7,0.4,1,0.5c1.7,0.9,2.9,1.8,3.4,2.7
			s0.9,1.9,0.9,3.3c0,1.8-0.5,3.2-1.6,4.3c-1.1,1.1-2.5,1.6-4.3,1.6c-1.3,0-2.4-0.3-3.4-1C64.1,159.7,63.4,158.7,62.9,157.4z"/>
		<path class="st0" d="M78.4,160.8v-20.1h1.8v20.1H78.4z"/>
		<path class="st0" d="M85.3,160.8v-21l14.3,16.8v-16h1.7v20.7L87,144.6v16.3H85.3z"/>
		<path class="st0" d="M114.3,160.8v-20.1h1.8v20.1H114.3z"/>
		<path class="st0" d="M121.2,160.8v-21l14.3,16.8v-16h1.7v20.7l-14.2-16.9v16.3H121.2z"/>
		<path class="st0" d="M145.7,160.8v-18.4h-5.5v-1.7h12.9v1.7h-5.6v18.4H145.7z"/>
		<path class="st0" d="M156.1,160.8v-20.1h10v1.7H158v6.3h8.1v1.7H158v8.7h8.1v1.7H156.1z"/>
		<path class="st0" d="M182.8,160.8h-2.2l-7.1-9.6h-1.1v9.6h-1.8v-20.1h3.7c2.2,0,3.8,0.5,4.9,1.4c1.1,0.9,1.6,2.3,1.6,4.1
			c0,1.6-0.5,2.8-1.4,3.7c-0.9,0.9-2.2,1.3-3.8,1.3L182.8,160.8z M172.4,142.3v7.4h1.8c1.7,0,2.9-0.3,3.6-0.8s1-1.5,1-2.8
			c0-1.4-0.3-2.4-1-3c-0.7-0.6-1.9-0.9-3.5-0.9H172.4z"/>
		<path class="st0" d="M185.4,160.8v-21l14.3,16.8v-16h1.7v20.7l-14.2-16.9v16.3H185.4z"/>
		<path class="st0" d="M203.7,160.8l8.8-20.9l8.5,20.9h-2l-2.6-6.8h-8.2l-2.7,6.8H203.7z M208.8,152.4h7l-3.4-8.8L208.8,152.4z"/>
	</g>
	<g>
		<path class="st0" d="M225.3,160.8v-18.4h-5.5v-1.7h12.9v1.7h-5.6v18.4H225.3z"/>
		<path class="st0" d="M235.7,160.8v-20.1h1.8v20.1H235.7z"/>
		<path class="st0" d="M263.1,150.8c0,1.4-0.3,2.8-0.8,4c-0.5,1.3-1.3,2.4-2.3,3.4c-1,1-2.2,1.8-3.5,2.3c-1.3,0.5-2.7,0.8-4.1,0.8
			c-1.4,0-2.8-0.3-4.1-0.8c-1.3-0.5-2.5-1.3-3.5-2.3c-1-1-1.8-2.2-2.3-3.4c-0.5-1.3-0.8-2.6-0.8-4c0-1.4,0.3-2.8,0.8-4.1
			s1.3-2.4,2.3-3.4c1-1,2.2-1.8,3.5-2.3c1.3-0.5,2.7-0.8,4.2-0.8c1.5,0,2.9,0.3,4.2,0.8s2.5,1.3,3.5,2.3c1,1,1.8,2.2,2.3,3.4
			S263.1,149.4,263.1,150.8z M252.3,159.7c1.2,0,2.3-0.2,3.4-0.7c1.1-0.4,2-1.1,2.9-1.9c0.8-0.9,1.5-1.8,1.9-2.9
			c0.4-1.1,0.7-2.2,0.7-3.4c0-1.2-0.2-2.4-0.7-3.4c-0.4-1.1-1.1-2-1.9-2.9c-0.8-0.8-1.8-1.5-2.9-1.9c-1.1-0.4-2.2-0.7-3.4-0.7
			c-1.2,0-2.3,0.2-3.4,0.7c-1.1,0.4-2,1.1-2.9,1.9c-0.8,0.9-1.5,1.8-1.9,2.9s-0.7,2.2-0.7,3.4c0,1.2,0.2,2.4,0.7,3.4
			c0.4,1.1,1.1,2,1.9,2.9c0.8,0.9,1.8,1.5,2.8,1.9C250,159.5,251.1,159.7,252.3,159.7z"/>
		<path class="st0" d="M267.1,160.8v-21l14.3,16.8v-16h1.7v20.7l-14.2-16.9v16.3H267.1z"/>
		<path class="st0" d="M285.4,160.8l8.8-20.9l8.5,20.9h-2l-2.6-6.8h-8.2l-2.7,6.8H285.4z M290.5,152.4h7l-3.4-8.8L290.5,152.4z"/>
		<path class="st0" d="M304.9,160.8v-20.1h1.8v18.4h6.9v1.7H304.9z"/>
		<path class="st0" d="M324.7,160.8v-20.1h3.7c1.4,0,2.5,0.1,3.2,0.2c0.7,0.2,1.3,0.4,1.8,0.8c0.6,0.5,1.1,1.1,1.5,1.9
			s0.5,1.7,0.5,2.7c0,1.9-0.5,3.3-1.6,4.2c-1.1,0.9-2.8,1.3-5.1,1.3h-2.1v9H324.7z M326.5,150.2h1.2c2.2,0,3.7-0.3,4.5-0.8
			c0.8-0.6,1.1-1.6,1.1-3c0-0.6-0.1-1.1-0.3-1.6s-0.4-0.9-0.8-1.3c-0.4-0.4-0.8-0.7-1.5-0.9c-0.6-0.2-1.7-0.2-3.1-0.2h-1.2V150.2z"
			/>
		<path class="st0" d="M359.3,150.8c0,1.4-0.3,2.8-0.8,4c-0.5,1.3-1.3,2.4-2.3,3.4c-1,1-2.2,1.8-3.5,2.3c-1.3,0.5-2.7,0.8-4.1,0.8
			c-1.4,0-2.8-0.3-4.1-0.8c-1.3-0.5-2.5-1.3-3.5-2.3c-1-1-1.8-2.2-2.3-3.4c-0.5-1.3-0.8-2.6-0.8-4c0-1.4,0.3-2.8,0.8-4.1
			s1.3-2.4,2.3-3.4c1-1,2.2-1.8,3.5-2.3c1.3-0.5,2.7-0.8,4.2-0.8c1.5,0,2.9,0.3,4.2,0.8s2.5,1.3,3.5,2.3c1,1,1.8,2.2,2.3,3.4
			S359.3,149.4,359.3,150.8z M348.5,159.7c1.2,0,2.3-0.2,3.4-0.7c1.1-0.4,2-1.1,2.9-1.9c0.8-0.9,1.5-1.8,1.9-2.9
			c0.4-1.1,0.7-2.2,0.7-3.4c0-1.2-0.2-2.4-0.7-3.4c-0.4-1.1-1.1-2-1.9-2.9c-0.8-0.8-1.8-1.5-2.9-1.9c-1.1-0.4-2.2-0.7-3.4-0.7
			c-1.2,0-2.3,0.2-3.4,0.7c-1.1,0.4-2,1.1-2.9,1.9c-0.8,0.9-1.5,1.8-1.9,2.9s-0.7,2.2-0.7,3.4c0,1.2,0.2,2.4,0.7,3.4
			c0.4,1.1,1.1,2,1.9,2.9c0.8,0.9,1.8,1.5,2.8,1.9C346.2,159.5,347.3,159.7,348.5,159.7z"/>
		<path class="st0" d="M375.6,160.8h-2.2l-7.1-9.6h-1.1v9.6h-1.8v-20.1h3.7c2.2,0,3.8,0.5,4.9,1.4c1.1,0.9,1.6,2.3,1.6,4.1
			c0,1.6-0.5,2.8-1.4,3.7c-0.9,0.9-2.2,1.3-3.8,1.3L375.6,160.8z M365.2,142.3v7.4h1.8c1.7,0,2.9-0.3,3.6-0.8s1-1.5,1-2.8
			c0-1.4-0.3-2.4-1-3c-0.7-0.6-1.9-0.9-3.5-0.9H365.2z"/>
	</g>
	<g>
		<path class="st0" d="M381.3,160.8v-18.4h-5.5v-1.7h12.9v1.7h-5.6v18.4H381.3z"/>
	</g>
	<line class="st3" x1="10.6" y1="172.3" x2="388.4" y2="172.3"/>
	<g>
		<path class="st2" d="M125.3,198.9l6.7-14.9l6.4,14.9h-1.5l-2-4.9h-6.2l-2,4.9H125.3z M129.2,193h5.3l-2.6-6.2L129.2,193z"/>
		<path class="st2" d="M153.2,199.5l-5.4-11.5l-1.2,10.9h-1.4l2.1-14.9l5.9,12.7l6.1-12.7l2,14.9h-1.4l-1.1-10.9L153.2,199.5z"/>
		<path class="st2" d="M164.1,198.9v-14.3h7.6v1.2h-6.2v4.5h6.2v1.2h-6.2v6.2h6.2v1.2H164.1z"/>
		<path class="st2" d="M182.1,199.5l-5.4-11.5l-1.2,10.9h-1.4l2.1-14.9l5.9,12.7l6.1-12.7l2,14.9h-1.4l-1.1-10.9L182.1,199.5z"/>
		<path class="st2" d="M192.9,198.9v-14.3h2.6c1.2,0,2,0.1,2.5,0.2c0.5,0.1,1,0.3,1.3,0.5c0.5,0.4,0.9,0.8,1.2,1.3s0.4,1.1,0.4,1.7
			c0,0.8-0.2,1.4-0.6,1.9c-0.4,0.5-1,0.9-1.8,1.1c1,0.1,1.7,0.5,2.3,1.1c0.6,0.6,0.8,1.4,0.8,2.3c0,0.7-0.1,1.3-0.3,1.8
			c-0.2,0.5-0.5,1-1,1.4c-0.4,0.4-1,0.7-1.6,0.8c-0.6,0.2-1.7,0.2-3.2,0.2H192.9z M194.3,191h1.7c1.3,0,2.2-0.2,2.7-0.6
			c0.5-0.4,0.8-1,0.8-2c0-1-0.3-1.7-0.8-2.1c-0.5-0.4-1.4-0.6-2.7-0.6h-1.7V191z M194.3,197.8h1.8c1,0,1.7,0,2.1-0.1
			c0.4-0.1,0.7-0.2,1-0.4c0.3-0.2,0.6-0.6,0.8-1c0.2-0.4,0.3-0.9,0.3-1.3c0-0.6-0.1-1.1-0.3-1.5c-0.2-0.4-0.5-0.8-0.9-1
			c-0.3-0.1-0.6-0.2-0.9-0.3s-0.9-0.1-1.7-0.1h-0.3h-1.8V197.8z"/>
		<path class="st2" d="M204.8,198.9v-14.3h7.6v1.2h-6.2v4.5h6.2v1.2h-6.2v6.2h6.2v1.2H204.8z"/>
		<path class="st2" d="M225,198.9h-1.7l-5.4-6.8h-0.8v6.8h-1.4v-14.3h2.8c1.7,0,2.9,0.3,3.7,1c0.8,0.6,1.2,1.6,1.2,2.9
			c0,1.1-0.4,2-1.1,2.6c-0.7,0.6-1.7,1-2.9,1L225,198.9z M217.1,185.8v5.3h1.4c1.3,0,2.2-0.2,2.7-0.6c0.5-0.4,0.8-1,0.8-2
			c0-1-0.3-1.7-0.8-2.1c-0.5-0.4-1.4-0.6-2.7-0.6H217.1z"/>
		<path class="st2" d="M248.8,191.8c0,1-0.2,2-0.6,2.9c-0.4,0.9-1,1.7-1.8,2.4c-0.8,0.7-1.7,1.3-2.7,1.6s-2,0.6-3.1,0.6
			s-2.1-0.2-3.1-0.6s-1.9-0.9-2.6-1.6c-0.8-0.7-1.4-1.5-1.8-2.4s-0.6-1.9-0.6-2.9c0-1,0.2-2,0.6-2.9c0.4-0.9,1-1.7,1.8-2.5
			c0.8-0.7,1.6-1.2,2.6-1.6c1-0.4,2-0.5,3.2-0.5c1.1,0,2.2,0.2,3.2,0.6c1,0.4,1.9,0.9,2.6,1.6c0.8,0.7,1.4,1.5,1.8,2.5
			C248.6,189.8,248.8,190.8,248.8,191.8z M240.6,198.2c0.9,0,1.8-0.2,2.6-0.5c0.8-0.3,1.5-0.8,2.2-1.4c0.6-0.6,1.1-1.3,1.5-2.1
			c0.3-0.8,0.5-1.6,0.5-2.4c0-0.9-0.2-1.7-0.5-2.4c-0.3-0.8-0.8-1.5-1.5-2.1c-0.6-0.6-1.4-1.1-2.2-1.4c-0.8-0.3-1.7-0.5-2.6-0.5
			c-0.9,0-1.8,0.2-2.6,0.5c-0.8,0.3-1.5,0.8-2.2,1.4c-0.6,0.6-1.1,1.3-1.5,2.1c-0.3,0.8-0.5,1.6-0.5,2.4c0,0.9,0.2,1.7,0.5,2.4
			s0.8,1.5,1.5,2.1c0.6,0.6,1.4,1.1,2.2,1.4C238.8,198,239.7,198.2,240.6,198.2z"/>
		<path class="st2" d="M251.8,198.9v-14.3h7.6v1.2h-6.2v4.5h5.9v1.2h-5.9v7.4H251.8z"/>
		<path class="st2" d="M330.4,188.2c-0.6-0.9-1.4-1.6-2.3-2c-0.9-0.5-1.9-0.7-3.1-0.7c-1.9,0-3.4,0.6-4.6,1.8
			c-1.2,1.2-1.8,2.8-1.8,4.7c0,0.9,0.2,1.7,0.5,2.4s0.8,1.4,1.4,2c0.6,0.6,1.3,1,2.1,1.3c0.8,0.3,1.6,0.4,2.5,0.4
			c1.7,0,3.1-0.5,4.2-1.4c1.1-0.9,1.6-2.2,1.7-3.7h-5.3v-1.1h6.8v0.2c0,2.3-0.7,4.1-2,5.4c-1.3,1.3-3.2,1.9-5.5,1.9
			c-2.3,0-4.2-0.7-5.6-2.1s-2.1-3.2-2.1-5.4c0-1,0.2-2,0.5-2.9c0.4-0.9,0.9-1.7,1.6-2.4c0.7-0.7,1.6-1.3,2.5-1.7
			c0.9-0.4,2-0.5,3.1-0.5c1.5,0,2.9,0.3,4,0.8c1.1,0.5,2,1.3,2.6,2.3L330.4,188.2z"/>
		<path class="st2" d="M344.6,198.9H343l-5.4-6.8h-0.8v6.8h-1.4v-14.3h2.8c1.7,0,2.9,0.3,3.7,1c0.8,0.6,1.2,1.6,1.2,2.9
			c0,1.1-0.4,2-1.1,2.6c-0.7,0.6-1.7,1-2.9,1L344.6,198.9z M336.8,185.8v5.3h1.4c1.3,0,2.2-0.2,2.7-0.6c0.5-0.4,0.8-1,0.8-2
			c0-1-0.3-1.7-0.8-2.1c-0.5-0.4-1.4-0.6-2.7-0.6H336.8z"/>
		<path class="st2" d="M362.3,191.8c0,1-0.2,2-0.6,2.9c-0.4,0.9-1,1.7-1.8,2.4c-0.8,0.7-1.7,1.3-2.7,1.6s-2,0.6-3.1,0.6
			s-2.1-0.2-3.1-0.6s-1.9-0.9-2.6-1.6c-0.8-0.7-1.4-1.5-1.8-2.4s-0.6-1.9-0.6-2.9c0-1,0.2-2,0.6-2.9c0.4-0.9,1-1.7,1.8-2.5
			c0.8-0.7,1.6-1.2,2.6-1.6c1-0.4,2-0.5,3.2-0.5c1.1,0,2.2,0.2,3.2,0.6c1,0.4,1.9,0.9,2.6,1.6c0.8,0.7,1.4,1.5,1.8,2.5
			C362.1,189.8,362.3,190.8,362.3,191.8z M354.1,198.2c0.9,0,1.8-0.2,2.6-0.5c0.8-0.3,1.5-0.8,2.2-1.4c0.6-0.6,1.1-1.3,1.5-2.1
			c0.3-0.8,0.5-1.6,0.5-2.4c0-0.9-0.2-1.7-0.5-2.4c-0.3-0.8-0.8-1.5-1.5-2.1c-0.6-0.6-1.4-1.1-2.2-1.4c-0.8-0.3-1.7-0.5-2.6-0.5
			c-0.9,0-1.8,0.2-2.6,0.5c-0.8,0.3-1.5,0.8-2.2,1.4c-0.6,0.6-1.1,1.3-1.5,2.1c-0.3,0.8-0.5,1.6-0.5,2.4c0,0.9,0.2,1.7,0.5,2.4
			s0.8,1.5,1.5,2.1c0.6,0.6,1.4,1.1,2.2,1.4C352.3,198,353.2,198.2,354.1,198.2z"/>
		<path class="st2" d="M365.3,184.6h1.4v9.4c0,1.4,0.3,2.5,1,3.2c0.7,0.7,1.7,1,3.2,1c1.4,0,2.4-0.3,3.1-1c0.7-0.7,1-1.7,1-3.2v-9.4
			h1.4v8.9c0,1.9-0.5,3.4-1.4,4.3c-0.9,1-2.3,1.4-4.2,1.4c-1.9,0-3.3-0.5-4.2-1.4c-0.9-1-1.4-2.4-1.4-4.3V184.6z"/>
		<path class="st2" d="M380.1,198.9v-14.3h2.8c1.1,0,1.9,0.1,2.4,0.2c0.5,0.1,1,0.3,1.4,0.5c0.5,0.3,0.9,0.8,1.1,1.3
			c0.3,0.6,0.4,1.2,0.4,1.9c0,1.4-0.4,2.4-1.2,3c-0.8,0.6-2.1,1-3.9,1h-1.6v6.4H380.1z M381.5,191.4h0.9c1.7,0,2.8-0.2,3.4-0.6
			c0.6-0.4,0.9-1.1,0.9-2.1c0-0.4-0.1-0.8-0.2-1.2c-0.1-0.4-0.3-0.7-0.6-1c-0.3-0.3-0.6-0.5-1.1-0.6c-0.5-0.1-1.3-0.2-2.4-0.2h-0.9
			V191.4z"/>
	</g>
	<path class="st4" d="M314.6,198.2l-6.4-13.8l-6.7,13.8h2.2l1.5-3.3h5.8l1.4,3.3H314.6z M310.1,193H306l2.1-4.4L310.1,193z
		 M295.6,188c0-0.5,0.2-0.9,0.6-1.2c0.4-0.3,0.8-0.5,1.4-0.5c0.5,0,0.8,0.1,1.1,0.3c0.3,0.2,0.6,0.5,0.9,1.1l1.7-1
		c-0.9-1.5-2.1-2.3-3.6-2.3c-1.2,0-2.1,0.3-2.9,1c-0.8,0.7-1.2,1.5-1.2,2.5c0,1.5,0.9,2.6,2.8,3.4l1.3,0.5c0.3,0.1,0.6,0.3,0.9,0.5
		c0.2,0.2,0.4,0.3,0.6,0.5c0.2,0.2,0.3,0.4,0.3,0.6c0.1,0.2,0.1,0.5,0.1,0.7c0,0.7-0.2,1.2-0.6,1.6c-0.4,0.4-0.9,0.6-1.6,0.6
		c-0.8,0-1.4-0.3-1.8-0.9c-0.2-0.3-0.4-0.9-0.5-1.6l-2.1,0.5c0.2,1.3,0.7,2.2,1.4,2.9c0.8,0.7,1.7,1,2.9,1c1.2,0,2.3-0.4,3.1-1.2
		c0.8-0.8,1.2-1.8,1.2-3.1c0-0.9-0.3-1.7-0.8-2.4c-0.5-0.6-1.3-1.2-2.4-1.6l-1.3-0.6C296.1,189.2,295.6,188.7,295.6,188z
		 M292.5,188.7c0-1.2-0.4-2.1-1.2-2.9c-0.4-0.4-1-0.7-1.5-0.9c-0.6-0.2-1.4-0.2-2.6-0.2h-2.3v13.5h2v-5.5h0.9c1.4,0,2.5-0.4,3.4-1.1
		C292,190.9,292.5,189.9,292.5,188.7z M290.5,188.7c0,1.4-0.9,2.2-2.8,2.2h-0.8v-4.3h0.7C289.5,186.6,290.5,187.3,290.5,188.7z"/>
	<path class="st4" d="M267.8,182.7c0,0-0.8,1.7-0.8,4.2c-2.8,2.6-3.5,5.8-3.5,5.8c1-1.6,2.3-2.8,3.6-3.7c0.1,0.9,0.3,1.8,0.7,2.7
		c-2.3,1.8-3.1,4.6-3.1,4.6c1.1-1.6,2.3-2.7,3.6-3.5l0.2,0.3c2.5,5.1,5.6,5.5,7.4,4.9c1.7-0.6,2.4-2.4,2.4-4.6c0,0-0.4,1.6-1.7,2.2
		c-1.7,0.6-4.3-0.7-6.2-3.6c2.5-0.8,4.8-0.2,5.4,0.5c0.9,0.9,0.1,1.6,0.1,1.6c0.9-0.2,2-0.8,1.8-2.1c-0.2-1.3-3.3-3.4-8.1-1.3
		c-0.4-0.8-0.7-1.6-1-2.5c3-1.5,6.3-1.5,8.7-1.1c1.3,2.3,2,5.3,1.1,8.8c0,0,2.7-3.2,1.1-8.2c0.4,0.2,0.6,0.3,0.8,0.4
		c1.5,1.3,0.1,2.4,0.1,2.4c1.4-0.3,2.8-1.1,2.7-2.8c0-1.4-2-3.6-5.6-4.1c-2.7-4.2-5.5-4.8-7.1-4c-1.3,0.6-2,2.1-1.8,4.5
		c0,0,0.7-2.5,3.1-1.8c0.8,0.2,1.6,0.6,2.5,1.3c-1.1,0.1-2.2,0.4-3.4,0.9c-1.1,0.4-2,0.9-2.8,1.5C267.8,185,267.8,183.8,267.8,182.7
		"/>
</g>
</svg>
